<?xml version="1.0" encoding="iso-8859-1"?>
<!-- Generator: Adobe Illustrator 19.0.0, SVG Export Plug-In . SVG Version: 6.00 Build 0)  -->
<svg version="1.1" id="Capa_1" xmlns="http://www.w3.org/2000/svg" xmlns:xlink="http://www.w3.org/1999/xlink" x="0px" y="0px"
	 viewBox="0 0 512 512" style="enable-background:new 0 0 512 512;" xml:space="preserve">
<g>
	<g>
		<path d="M459.638,487.67l-12.461-67.632c-0.008-0.042-0.023-0.082-0.031-0.124c-0.047-0.234-0.105-0.465-0.175-0.696
			c-0.021-0.068-0.041-0.136-0.063-0.203c-0.084-0.25-0.18-0.496-0.292-0.739c-0.013-0.027-0.022-0.056-0.035-0.083
			c-0.125-0.263-0.267-0.52-0.424-0.771c-0.041-0.066-0.088-0.127-0.131-0.191c-0.086-0.127-0.167-0.257-0.261-0.379l-51.638-67.687
			l33.343-33.348c16.388-16.388,26.79-38.078,29.289-61.075c2.462-22.647-2.774-45.713-14.745-64.948
			c-2.187-3.513-6.805-4.587-10.316-2.402c-3.512,2.185-4.587,6.803-2.402,10.315c10.209,16.405,14.673,36.084,12.572,55.416
			c-2.163,19.9-10.805,37.916-24.99,52.102l-31.918,31.923l-40.373-52.92l15.75-20.239c2.54-3.264,1.953-7.97-1.311-10.51
			c-3.265-2.539-7.969-1.953-10.51,1.311l-44.643,57.362l-69.007,22.838c-3.927,1.299-6.056,5.536-4.757,9.463
			c1.042,3.146,3.967,5.139,7.109,5.139c0.779,0,1.573-0.123,2.354-0.381l23.811-7.881l51.047,66.92l-52.134,51.58
			c-2.046,2.046-5.375,2.046-7.421,0l-154.27-154.273c-33.95-33.95-33.95-89.191,0-123.142c33.948-33.951,89.19-33.951,123.141,0
			l20.527,20.527c3.821,3.821,8.9,5.925,14.303,5.925c5.402,0,10.482-2.104,14.301-5.925l20.862-20.86
			c15.503-15.504,36.096-24.535,57.988-25.43c21.741-0.895,42.898,6.302,59.506,20.252c3.169,2.661,7.892,2.25,10.552-0.918
			c2.66-3.167,2.249-7.891-0.918-10.551c-19.476-16.36-44.255-24.791-69.753-23.75c-25.659,1.049-49.797,11.634-67.967,29.805
			l-13.927,13.926L191.495,83.529l0.8-0.61c3.287-2.509,3.918-7.208,1.41-10.496l-23.976-31.425
			c-2.508-3.287-7.205-3.921-10.495-1.414l-0.805,0.614l-20.723-27.167c-11.08-14.53-31.914-17.336-46.448-6.256L65.087,26.744
			c-12.854,9.801-16.771,27.309-9.315,41.631c1.335,2.564,3.945,4.032,6.648,4.032c1.165,0,2.349-0.273,3.453-0.848
			c3.669-1.91,5.095-6.433,3.183-10.102c-4.083-7.842-1.933-17.432,5.114-22.804l26.171-19.969
			c7.966-6.073,19.382-4.534,25.454,3.429l20.723,27.17L91.463,91.277l-5.087-6.669c-2.508-3.289-7.208-3.921-10.497-1.413
			c-3.288,2.508-3.921,7.208-1.412,10.497l5.087,6.668l-0.8,0.61c-3.286,2.509-3.918,7.208-1.411,10.495l23.976,31.435
			c1.475,1.932,3.705,2.948,5.961,2.948c1.582,0,3.178-0.499,4.534-1.533l0.807-0.615l6.071,7.96
			c-10.385,4.878-20.113,11.596-28.682,20.165c-39.79,39.79-39.79,104.535,0,144.325l154.272,154.272
			c3.947,3.947,9.133,5.919,14.314,5.919c5.171,0,10.338-1.965,14.264-5.89l50.73-50.191l43.3,56.764
			c0.057,0.075,0.123,0.14,0.183,0.212c0.09,0.11,0.181,0.218,0.277,0.323c0.121,0.131,0.247,0.253,0.374,0.373
			c0.089,0.084,0.177,0.169,0.271,0.249c0.154,0.131,0.313,0.251,0.474,0.367c0.082,0.059,0.161,0.121,0.246,0.177
			c0.196,0.13,0.398,0.246,0.604,0.354c0.052,0.028,0.099,0.063,0.152,0.089l0.089,0.045c0.009,0.004,0.017,0.009,0.026,0.013
			l60.546,30.546c0.002,0.001,0,0,0.002,0.001l0.001,0.001c2.956,1.491,6.132,2.225,9.29,2.225c4.349,0,8.662-1.394,12.308-4.125
			C458.033,503.157,461.061,495.416,459.638,487.67z M133.307,146.122l-8.776-11.507l9.133-6.967l11.958,15.68
			C141.474,144.004,137.361,144.933,133.307,146.122z M163.443,141.997l-17.874-23.432l12.979-9.902l27.582,36.151
			C178.68,143.028,171.066,142.092,163.443,141.997z M256.519,193.468c-0.61-0.26-1.173-0.633-1.657-1.116l-20.527-20.527
			c-6.459-6.459-13.578-11.862-21.139-16.225l-42.741-56.023l9.128-6.964L256.519,193.468z M108.69,127.865l-14.896-19.53
			l68.566-52.299l14.894,19.52L108.69,127.865z M335.073,296.453l94.24,123.529l-9.123,6.96l-92.403-121.128L335.073,296.453z
			 M310.741,325.658c0.015-0.005,0.029-0.012,0.044-0.017c0.114-0.038,0.223-0.086,0.335-0.13c0.14-0.054,0.28-0.108,0.413-0.17
			c0.105-0.048,0.206-0.104,0.309-0.157c0.139-0.072,0.276-0.145,0.408-0.225c0.093-0.056,0.184-0.116,0.275-0.177
			c0.14-0.093,0.275-0.188,0.406-0.289c0.079-0.061,0.158-0.122,0.235-0.187c0.145-0.12,0.283-0.246,0.417-0.375
			c0.059-0.057,0.119-0.111,0.177-0.171c0.183-0.189,0.357-0.384,0.517-0.59c0.007-0.008,0.014-0.015,0.021-0.023l0.006-0.008
			c0.006-0.007,0.011-0.014,0.017-0.022l3.952-5.08l90.008,117.988l-12.985,9.907L304.994,327.56L310.741,325.658z M374.258,461.985
			l-95.833-125.631l11.528-3.815l93.434,122.481L374.258,461.985z M424.692,471.23c-0.705,0.541-1.391,1.106-2.066,1.689
			c-0.177,0.153-0.349,0.311-0.523,0.465c-0.529,0.47-1.049,0.955-1.559,1.451c-0.164,0.16-0.33,0.316-0.491,0.478
			c-0.635,0.637-1.258,1.29-1.863,1.969c-0.099,0.111-0.194,0.228-0.292,0.34c-0.513,0.585-1.016,1.187-1.507,1.803
			c-0.162,0.203-0.322,0.405-0.48,0.611c-0.506,0.654-1.003,1.323-1.485,2.01c-0.064,0.091-0.131,0.179-0.195,0.271
			c-0.45,0.65-0.891,1.312-1.319,1.992l-26.014-13.126l47.757-36.434l5.286,28.694c-0.513,0.158-1.016,0.331-1.519,0.501
			c-0.153,0.052-0.309,0.099-0.459,0.152c-0.865,0.304-1.713,0.631-2.548,0.977c-0.221,0.091-0.437,0.188-0.655,0.282
			c-0.655,0.282-1.3,0.576-1.937,0.884c-0.215,0.104-0.43,0.205-0.643,0.311c-0.801,0.401-1.59,0.82-2.361,1.263
			c-0.115,0.066-0.226,0.138-0.341,0.205c-0.666,0.39-1.319,0.797-1.963,1.219c-0.211,0.138-0.42,0.278-0.629,0.419
			c-0.639,0.434-1.268,0.882-1.884,1.347C424.899,471.079,424.794,471.152,424.692,471.23z M442.755,495.886
			c-0.833,0.624-3.081,1.924-5.875,0.515l-10.503-5.298c0.069-0.1,0.142-0.193,0.212-0.292c0.407-0.583,0.825-1.15,1.254-1.699
			c0.174-0.222,0.354-0.433,0.532-0.649c0.354-0.429,0.712-0.851,1.079-1.257c0.201-0.222,0.404-0.439,0.609-0.655
			c0.373-0.391,0.755-0.77,1.142-1.139c0.201-0.192,0.399-0.386,0.605-0.572c0.467-0.423,0.947-0.828,1.435-1.22
			c0.133-0.107,0.261-0.223,0.394-0.328c0.626-0.488,1.27-0.951,1.931-1.39c0.172-0.115,0.351-0.218,0.526-0.329
			c0.497-0.318,1.002-0.625,1.519-0.917c0.246-0.139,0.497-0.27,0.748-0.401c0.468-0.249,0.944-0.486,1.428-0.713
			c0.266-0.125,0.533-0.249,0.804-0.366c0.51-0.224,1.031-0.432,1.559-0.633c0.177-0.067,0.352-0.138,0.53-0.203l2.221,12.045
			C445.474,493.47,443.591,495.26,442.755,495.886z"/>
	</g>
</g>
<g>
</g>
<g>
</g>
<g>
</g>
<g>
</g>
<g>
</g>
<g>
</g>
<g>
</g>
<g>
</g>
<g>
</g>
<g>
</g>
<g>
</g>
<g>
</g>
<g>
</g>
<g>
</g>
<g>
</g>
</svg>
